<svg xmlns="http://www.w3.org/2000/svg" version="1.1" xmlns:xlink="http://www.w3.org/1999/xlink" width="1440" height="560" preserveAspectRatio="none" viewBox="0 0 1440 560"><g mask="url(&quot;#SvgjsMask1045&quot;)" fill="none"><rect width="1440" height="560" x="0" y="0" fill="rgba(0, 92, 145, 1)"></rect><path d="M 0,246 C 28.8,222.6 86.4,128.8 144,129 C 201.6,129.2 230.4,252.2 288,247 C 345.6,241.8 374.4,113.6 432,103 C 489.6,92.4 518.4,203.2 576,194 C 633.6,184.8 662.4,63.4 720,57 C 777.6,50.6 806.4,154.8 864,162 C 921.6,169.2 950.4,79.4 1008,93 C 1065.6,106.6 1094.4,244.4 1152,230 C 1209.6,215.6 1238.4,12 1296,21 C 1353.6,30 1411.2,224.2 1440,275L1440 560L0 560z" fill="rgba(0, 71, 111, 1)"></path><path d="M 0,445 C 96,438.6 288,403.8 480,413 C 672,422.2 768,507.8 960,491 C 1152,474.2 1344,361.4 1440,329L1440 560L0 560z" fill="rgba(34, 34, 34, 1)"></path></g><defs><mask id="SvgjsMask1045"><rect width="1440" height="560" fill="#ffffff"></rect></mask></defs></svg>